<?xml version="1.0" encoding="UTF-8" standalone="no"?>
<!DOCTYPE svg PUBLIC "-//W3C//DTD SVG 1.1//EN" "http://www.w3.org/Graphics/SVG/1.1/DTD/svg11.dtd">
<svg width="100%" height="100%" viewBox="0 0 480 480" version="1.1" xmlns="http://www.w3.org/2000/svg" xmlns:xlink="http://www.w3.org/1999/xlink" xml:space="preserve" xmlns:serif="http://www.serif.com/" style="fill-rule:evenodd;clip-rule:evenodd;stroke-linejoin:round;stroke-miterlimit:2;">
    <g transform="matrix(0.553523,0,0,0.553523,89.298137,94.288253)">
        <path d="M429.46,32.07C405.86,38.6 223.91,90.88 178.92,103.5C177.206,103.981 176.01,105.55 176,107.33L176,354.33C176.002,355.176 175.467,355.937 174.67,356.22L146.82,365.77C127.82,373.21 80,382.45 80,424.96C80,460.5 104.63,476.5 125.86,479.24C128.439,479.703 131.05,479.971 133.67,480.04C141.04,480.04 170.05,472.96 186.97,461.96C208,448.25 208,448 208,412L208,202C208,201.1 208.62,201.16 209.48,200.93L397.48,149.01C397.653,148.962 397.832,148.938 398.011,148.938C399.108,148.938 400.011,149.841 400.011,150.938C400.011,150.962 400.011,150.986 400.01,151.01L400.01,306.55C400.008,307.404 399.459,308.167 398.65,308.44C389.75,311.44 379.42,314.94 372.17,317.56C341.39,328.68 304,335.65 304,376C304,414.51 332.26,430.58 350.3,431.83C357.424,432.37 364.588,432.034 371.63,430.83C380.63,429.45 395.72,424.93 409.77,415.97C432,401.79 432,401.51 432,360L432,34C432,33.999 432,33.997 432,33.996C432,32.899 431.097,31.996 430,31.996C429.817,31.996 429.636,32.021 429.46,32.07" style="fill-rule:nonzero;"/>
    </g>
</svg>
